<svg id="visual" viewBox="0 0 1920 1080" width="1920" height="1080" xmlns="http://www.w3.org/2000/svg" xmlns:xlink="http://www.w3.org/1999/xlink" version="1.1"><rect x="0" y="0" width="1920" height="1080" fill="#001220"></rect><defs><linearGradient id="grad1_0" x1="43.8%" y1="0%" x2="100%" y2="100%"><stop offset="14.444444444444446%" stop-color="#001220" stop-opacity="1"></stop><stop offset="85.55555555555554%" stop-color="#001220" stop-opacity="1"></stop></linearGradient></defs><defs><linearGradient id="grad2_0" x1="0%" y1="0%" x2="56.3%" y2="100%"><stop offset="14.444444444444446%" stop-color="#001220" stop-opacity="1"></stop><stop offset="85.55555555555554%" stop-color="#001220" stop-opacity="1"></stop></linearGradient></defs><g transform="translate(1920, 0)"><path d="M0 702C-112.4 666.9 -224.8 631.7 -333.5 577.6C-442.2 523.5 -547.2 450.4 -607.9 351C-668.7 251.6 -685.4 125.8 -702 0L0 0Z" fill="#6caee4"></path></g><g transform="translate(0, 1080)"><path d="M0 -702C124.2 -684.4 248.3 -666.9 351 -607.9C453.7 -549 534.8 -448.7 589.8 -340.5C644.7 -232.3 673.3 -116.1 702 0L0 0Z" fill="#6caee4"></path></g></svg>