<svg id="visual" viewBox="0 0 3200 1600" width="3200" height="1600" xmlns="http://www.w3.org/2000/svg" xmlns:xlink="http://www.w3.org/1999/xlink" version="1.1"><rect x="0" y="0" width="3200" height="1600" fill="#001122"></rect><defs><linearGradient id="grad1_0" x1="50%" y1="0%" x2="100%" y2="100%"><stop offset="10%" stop-color="#001122" stop-opacity="1"></stop><stop offset="90%" stop-color="#001122" stop-opacity="1"></stop></linearGradient></defs><defs><linearGradient id="grad2_0" x1="0%" y1="0%" x2="50%" y2="100%"><stop offset="10%" stop-color="#001122" stop-opacity="1"></stop><stop offset="90%" stop-color="#001122" stop-opacity="1"></stop></linearGradient></defs><g transform="translate(3200, 0)"><path d="M0 1120C-166.8 1123.8 -333.6 1127.5 -428.6 1034.7C-523.6 942 -546.9 752.6 -644.9 644.9C-742.8 537.1 -915.4 511 -1007 417.1C-1098.7 323.2 -1109.3 161.6 -1120 0L0 0Z" fill="#94bcdd"></path></g><g transform="translate(0, 1600)"><path d="M0 -1120C139.4 -1093.1 278.8 -1066.3 422.1 -1019C565.4 -971.8 712.7 -904.2 792 -792C871.2 -679.7 882.4 -522.9 925.7 -383.4C969.1 -244 1044.5 -122 1120 0L0 0Z" fill="#94bcdd"></path></g></svg>