<svg id="visual" viewBox="0 0 3200 1600" width="3200" height="1600" xmlns="http://www.w3.org/2000/svg" xmlns:xlink="http://www.w3.org/1999/xlink" version="1.1"><rect x="0" y="0" width="3200" height="1600" fill="#001220"></rect><defs><linearGradient id="grad1_0" x1="50%" y1="0%" x2="100%" y2="100%"><stop offset="10%" stop-color="#001220" stop-opacity="1"></stop><stop offset="90%" stop-color="#001220" stop-opacity="1"></stop></linearGradient></defs><defs><linearGradient id="grad2_0" x1="0%" y1="0%" x2="50%" y2="100%"><stop offset="10%" stop-color="#001220" stop-opacity="1"></stop><stop offset="90%" stop-color="#001220" stop-opacity="1"></stop></linearGradient></defs><g transform="translate(3200, 0)"><path d="M0 1120C-160 1119 -320 1118 -428.6 1034.7C-537.2 951.5 -594.3 785.9 -668.2 668.2C-742.1 550.5 -832.8 480.7 -910.9 377.3C-989 273.9 -1054.5 137 -1120 0L0 0Z" fill="#FBAE3C"></path></g><g transform="translate(0, 1600)"><path d="M0 -1120C145.7 -1105.1 291.4 -1090.2 428.6 -1034.7C565.8 -979.3 694.6 -883.4 763.7 -763.7C832.7 -644 842.1 -500.5 891.5 -369.3C941 -238.1 1030.5 -119 1120 0L0 0Z" fill="#FBAE3C"></path></g></svg>