<svg id="visual" viewBox="0 0 3200 1600" width="3200" height="1600" xmlns="http://www.w3.org/2000/svg" xmlns:xlink="http://www.w3.org/1999/xlink" version="1.1"><rect x="0" y="0" width="3200" height="1600" fill="#001220"></rect><path d="M0 1039L76.2 1046C152.3 1053 304.7 1067 457 1080C609.3 1093 761.7 1105 914 1114C1066.3 1123 1218.7 1129 1371.2 1126.3C1523.7 1123.7 1676.3 1112.3 1828.8 1080.3C1981.3 1048.3 2133.7 995.7 2286 991C2438.3 986.3 2590.7 1029.7 2743 1067.3C2895.3 1105 3047.7 1137 3123.8 1153L3200 1169L3200 1601L3123.8 1601C3047.7 1601 2895.3 1601 2743 1601C2590.7 1601 2438.3 1601 2286 1601C2133.7 1601 1981.3 1601 1828.8 1601C1676.3 1601 1523.7 1601 1371.2 1601C1218.7 1601 1066.3 1601 914 1601C761.7 1601 609.3 1601 457 1601C304.7 1601 152.3 1601 76.2 1601L0 1601Z" fill="#001220"></path><path d="M0 1263L76.2 1241C152.3 1219 304.7 1175 457 1157.7C609.3 1140.3 761.7 1149.7 914 1145.8C1066.3 1142 1218.7 1125 1371.2 1108C1523.7 1091 1676.3 1074 1828.8 1099.7C1981.3 1125.3 2133.7 1193.7 2286 1224.2C2438.3 1254.7 2590.7 1247.3 2743 1221.3C2895.3 1195.3 3047.7 1150.7 3123.8 1128.3L3200 1106L3200 1601L3123.8 1601C3047.7 1601 2895.3 1601 2743 1601C2590.7 1601 2438.3 1601 2286 1601C2133.7 1601 1981.3 1601 1828.8 1601C1676.3 1601 1523.7 1601 1371.2 1601C1218.7 1601 1066.3 1601 914 1601C761.7 1601 609.3 1601 457 1601C304.7 1601 152.3 1601 76.2 1601L0 1601Z" fill="#001220"></path><path d="M0 1213L76.2 1231.8C152.3 1250.7 304.7 1288.3 457 1287.3C609.3 1286.3 761.7 1246.7 914 1245C1066.3 1243.3 1218.7 1279.7 1371.2 1288.7C1523.7 1297.7 1676.3 1279.3 1828.8 1277.8C1981.3 1276.3 2133.7 1291.7 2286 1286C2438.3 1280.3 2590.7 1253.7 2743 1260.3C2895.3 1267 3047.7 1307 3123.8 1327L3200 1347L3200 1601L3123.8 1601C3047.7 1601 2895.3 1601 2743 1601C2590.7 1601 2438.3 1601 2286 1601C2133.7 1601 1981.3 1601 1828.8 1601C1676.3 1601 1523.7 1601 1371.2 1601C1218.7 1601 1066.3 1601 914 1601C761.7 1601 609.3 1601 457 1601C304.7 1601 152.3 1601 76.2 1601L0 1601Z" fill="#001220"></path><path d="M0 1304L76.2 1304.7C152.3 1305.3 304.7 1306.7 457 1311.2C609.3 1315.7 761.7 1323.3 914 1330.3C1066.3 1337.3 1218.7 1343.7 1371.2 1347.3C1523.7 1351 1676.3 1352 1828.8 1353.5C1981.3 1355 2133.7 1357 2286 1348C2438.3 1339 2590.7 1319 2743 1317.7C2895.3 1316.3 3047.7 1333.7 3123.8 1342.3L3200 1351L3200 1601L3123.8 1601C3047.7 1601 2895.3 1601 2743 1601C2590.7 1601 2438.3 1601 2286 1601C2133.7 1601 1981.3 1601 1828.8 1601C1676.3 1601 1523.7 1601 1371.2 1601C1218.7 1601 1066.3 1601 914 1601C761.7 1601 609.3 1601 457 1601C304.7 1601 152.3 1601 76.2 1601L0 1601Z" fill="#001220"></path><path d="M0 1478L76.2 1467.8C152.3 1457.7 304.7 1437.3 457 1430.2C609.3 1423 761.7 1429 914 1446.7C1066.3 1464.3 1218.7 1493.7 1371.2 1506C1523.7 1518.3 1676.3 1513.7 1828.8 1493C1981.3 1472.3 2133.7 1435.7 2286 1433.3C2438.3 1431 2590.7 1463 2743 1477.8C2895.3 1492.7 3047.7 1490.3 3123.8 1489.2L3200 1488L3200 1601L3123.8 1601C3047.7 1601 2895.3 1601 2743 1601C2590.7 1601 2438.3 1601 2286 1601C2133.7 1601 1981.3 1601 1828.8 1601C1676.3 1601 1523.7 1601 1371.2 1601C1218.7 1601 1066.3 1601 914 1601C761.7 1601 609.3 1601 457 1601C304.7 1601 152.3 1601 76.2 1601L0 1601Z" fill="#001220"></path></svg>