<svg id="visual" viewBox="0 0 3200 1600" width="3200" height="1600" xmlns="http://www.w3.org/2000/svg" xmlns:xlink="http://www.w3.org/1999/xlink" version="1.1"><rect x="0" y="0" width="3200" height="1600" fill="#001122"></rect><path d="M0 973L106.7 991.8C213.3 1010.7 426.7 1048.3 640 1053.3C853.3 1058.3 1066.7 1030.7 1280 1039.3C1493.3 1048 1706.7 1093 1920 1083.7C2133.3 1074.3 2346.7 1010.7 2560 982.8C2773.3 955 2986.7 963 3093.3 967L3200 971L3200 1601L3093.3 1601C2986.7 1601 2773.3 1601 2560 1601C2346.7 1601 2133.3 1601 1920 1601C1706.7 1601 1493.3 1601 1280 1601C1066.7 1601 853.3 1601 640 1601C426.7 1601 213.3 1601 106.7 1601L0 1601Z" fill="#c62368"></path><path d="M0 1246L106.7 1246.8C213.3 1247.7 426.7 1249.3 640 1235.2C853.3 1221 1066.7 1191 1280 1162.7C1493.3 1134.3 1706.7 1107.7 1920 1120.7C2133.3 1133.7 2346.7 1186.3 2560 1202.2C2773.3 1218 2986.7 1197 3093.3 1186.5L3200 1176L3200 1601L3093.3 1601C2986.7 1601 2773.3 1601 2560 1601C2346.7 1601 2133.3 1601 1920 1601C1706.7 1601 1493.3 1601 1280 1601C1066.7 1601 853.3 1601 640 1601C426.7 1601 213.3 1601 106.7 1601L0 1601Z" fill="#db6682"></path><path d="M0 1333L106.7 1320.7C213.3 1308.3 426.7 1283.7 640 1291.3C853.3 1299 1066.7 1339 1280 1358C1493.3 1377 1706.7 1375 1920 1353.8C2133.3 1332.7 2346.7 1292.3 2560 1283.3C2773.3 1274.3 2986.7 1296.7 3093.3 1307.8L3200 1319L3200 1601L3093.3 1601C2986.7 1601 2773.3 1601 2560 1601C2346.7 1601 2133.3 1601 1920 1601C1706.7 1601 1493.3 1601 1280 1601C1066.7 1601 853.3 1601 640 1601C426.7 1601 213.3 1601 106.7 1601L0 1601Z" fill="#ec99a2"></path><path d="M0 1454L106.7 1443.5C213.3 1433 426.7 1412 640 1398C853.3 1384 1066.7 1377 1280 1382.8C1493.3 1388.7 1706.7 1407.3 1920 1414.5C2133.3 1421.7 2346.7 1417.3 2560 1414C2773.3 1410.7 2986.7 1408.3 3093.3 1407.2L3200 1406L3200 1601L3093.3 1601C2986.7 1601 2773.3 1601 2560 1601C2346.7 1601 2133.3 1601 1920 1601C1706.7 1601 1493.3 1601 1280 1601C1066.7 1601 853.3 1601 640 1601C426.7 1601 213.3 1601 106.7 1601L0 1601Z" fill="#f7caca"></path></svg>