<svg id="visual" viewBox="0 0 1920 1080" width="1920" height="1080" xmlns="http://www.w3.org/2000/svg" xmlns:xlink="http://www.w3.org/1999/xlink" version="1.1"><rect x="0" y="0" width="1920" height="1080" fill="#001220"></rect><path d="M0 628L45.7 640.8C91.3 653.7 182.7 679.3 274.2 683.2C365.7 687 457.3 669 548.8 666.8C640.3 664.7 731.7 678.3 823 672C914.3 665.7 1005.7 639.3 1097 617.8C1188.3 596.3 1279.7 579.7 1371.2 574.2C1462.7 568.7 1554.3 574.3 1645.8 593.7C1737.3 613 1828.7 646 1874.3 662.5L1920 679L1920 1081L1874.3 1081C1828.7 1081 1737.3 1081 1645.8 1081C1554.3 1081 1462.7 1081 1371.2 1081C1279.7 1081 1188.3 1081 1097 1081C1005.7 1081 914.3 1081 823 1081C731.7 1081 640.3 1081 548.8 1081C457.3 1081 365.7 1081 274.2 1081C182.7 1081 91.3 1081 45.7 1081L0 1081Z" fill="#001122"></path><path d="M0 678L45.7 680.5C91.3 683 182.7 688 274.2 701.2C365.7 714.3 457.3 735.7 548.8 726.2C640.3 716.7 731.7 676.3 823 666.8C914.3 657.3 1005.7 678.7 1097 699.7C1188.3 720.7 1279.7 741.3 1371.2 742.3C1462.7 743.3 1554.3 724.7 1645.8 716.2C1737.3 707.7 1828.7 709.3 1874.3 710.2L1920 711L1920 1081L1874.3 1081C1828.7 1081 1737.3 1081 1645.8 1081C1554.3 1081 1462.7 1081 1371.2 1081C1279.7 1081 1188.3 1081 1097 1081C1005.7 1081 914.3 1081 823 1081C731.7 1081 640.3 1081 548.8 1081C457.3 1081 365.7 1081 274.2 1081C182.7 1081 91.3 1081 45.7 1081L0 1081Z" fill="#0f1d3b"></path><path d="M0 835L45.7 822C91.3 809 182.7 783 274.2 768.5C365.7 754 457.3 751 548.8 759.8C640.3 768.7 731.7 789.3 823 793.7C914.3 798 1005.7 786 1097 782.8C1188.3 779.7 1279.7 785.3 1371.2 787C1462.7 788.7 1554.3 786.3 1645.8 772C1737.3 757.7 1828.7 731.3 1874.3 718.2L1920 705L1920 1081L1874.3 1081C1828.7 1081 1737.3 1081 1645.8 1081C1554.3 1081 1462.7 1081 1371.2 1081C1279.7 1081 1188.3 1081 1097 1081C1005.7 1081 914.3 1081 823 1081C731.7 1081 640.3 1081 548.8 1081C457.3 1081 365.7 1081 274.2 1081C182.7 1081 91.3 1081 45.7 1081L0 1081Z" fill="#2b2652"></path><path d="M0 848L45.7 849.8C91.3 851.7 182.7 855.3 274.2 856.3C365.7 857.3 457.3 855.7 548.8 856.5C640.3 857.3 731.7 860.7 823 848.5C914.3 836.3 1005.7 808.7 1097 800.5C1188.3 792.3 1279.7 803.7 1371.2 817C1462.7 830.3 1554.3 845.7 1645.8 834.7C1737.3 823.7 1828.7 786.3 1874.3 767.7L1920 749L1920 1081L1874.3 1081C1828.7 1081 1737.3 1081 1645.8 1081C1554.3 1081 1462.7 1081 1371.2 1081C1279.7 1081 1188.3 1081 1097 1081C1005.7 1081 914.3 1081 823 1081C731.7 1081 640.3 1081 548.8 1081C457.3 1081 365.7 1081 274.2 1081C182.7 1081 91.3 1081 45.7 1081L0 1081Z" fill="#4f2b64"></path><path d="M0 872L45.7 872.8C91.3 873.7 182.7 875.3 274.2 885C365.7 894.7 457.3 912.3 548.8 918.7C640.3 925 731.7 920 823 905.5C914.3 891 1005.7 867 1097 867C1188.3 867 1279.7 891 1371.2 899.8C1462.7 908.7 1554.3 902.3 1645.8 904.5C1737.3 906.7 1828.7 917.3 1874.3 922.7L1920 928L1920 1081L1874.3 1081C1828.7 1081 1737.3 1081 1645.8 1081C1554.3 1081 1462.7 1081 1371.2 1081C1279.7 1081 1188.3 1081 1097 1081C1005.7 1081 914.3 1081 823 1081C731.7 1081 640.3 1081 548.8 1081C457.3 1081 365.7 1081 274.2 1081C182.7 1081 91.3 1081 45.7 1081L0 1081Z" fill="#772b6e"></path><path d="M0 967L45.7 962.5C91.3 958 182.7 949 274.2 944.3C365.7 939.7 457.3 939.3 548.8 935.3C640.3 931.3 731.7 923.7 823 924.5C914.3 925.3 1005.7 934.7 1097 942.5C1188.3 950.3 1279.7 956.7 1371.2 952.7C1462.7 948.7 1554.3 934.3 1645.8 934.7C1737.3 935 1828.7 950 1874.3 957.5L1920 965L1920 1081L1874.3 1081C1828.7 1081 1737.3 1081 1645.8 1081C1554.3 1081 1462.7 1081 1371.2 1081C1279.7 1081 1188.3 1081 1097 1081C1005.7 1081 914.3 1081 823 1081C731.7 1081 640.3 1081 548.8 1081C457.3 1081 365.7 1081 274.2 1081C182.7 1081 91.3 1081 45.7 1081L0 1081Z" fill="#a02770"></path><path d="M0 1003L45.7 1001.3C91.3 999.7 182.7 996.3 274.2 990.3C365.7 984.3 457.3 975.7 548.8 978C640.3 980.3 731.7 993.7 823 992.3C914.3 991 1005.7 975 1097 976.8C1188.3 978.7 1279.7 998.3 1371.2 1001.8C1462.7 1005.3 1554.3 992.7 1645.8 993.7C1737.3 994.7 1828.7 1009.3 1874.3 1016.7L1920 1024L1920 1081L1874.3 1081C1828.7 1081 1737.3 1081 1645.8 1081C1554.3 1081 1462.7 1081 1371.2 1081C1279.7 1081 1188.3 1081 1097 1081C1005.7 1081 914.3 1081 823 1081C731.7 1081 640.3 1081 548.8 1081C457.3 1081 365.7 1081 274.2 1081C182.7 1081 91.3 1081 45.7 1081L0 1081Z" fill="#c62368"></path></svg>